<svg width="500" height="400" viewBox="0 0 500 400" fill="none" xmlns="http://www.w3.org/2000/svg">
<mask id="mask0_350_51" style="mask-type:luminance" maskUnits="userSpaceOnUse" x="0" y="0" width="500" height="400">
<path d="M500 0H0V400H500V0Z" fill="white"/>
</mask>
<g mask="url(#mask0_350_51)">
<path d="M40.1409 110.512C62.3099 110.512 80.2821 93.7822 80.2821 73.1448C80.2821 52.5074 62.3099 35.7773 40.1409 35.7773C17.9717 35.7773 0 52.5074 0 73.1448C0 93.7822 17.9717 110.512 40.1409 110.512Z" fill="#FF6584"/>
<path d="M465.704 313.549C465.521 319.909 464.376 326.214 462.304 332.278C462.257 332.418 462.207 332.557 462.157 332.698H449.469C449.483 332.572 449.496 332.431 449.51 332.278C450.356 323.224 455.234 268.12 449.401 258.697C449.912 259.461 466.688 284.781 465.704 313.549Z" fill="#E6E6E6"/>
<path d="M464.752 332.278C464.646 332.419 464.536 332.56 464.423 332.698H454.904C454.977 332.578 455.06 332.438 455.157 332.278C456.73 329.636 461.384 321.737 465.704 313.549C470.347 304.749 474.606 295.616 474.248 292.31C474.358 293.055 477.571 315.784 464.752 332.278Z" fill="#E6E6E6"/>
<path d="M500.001 331.893H135.157V333.004H500.001V331.893Z" fill="#E6E6E6"/>
<path d="M368.69 366.585L370.463 352.974L420.531 341.012L414.771 324.926C418.784 314.213 425.828 308.96 438.698 314.202L460.835 327.004C462.987 328.248 464.74 330.007 465.91 332.098C467.081 334.189 467.626 336.534 467.489 338.889C467.354 341.253 466.536 343.538 465.121 345.505C463.706 347.472 461.746 349.046 459.45 350.062C434.667 360.998 403.081 365.182 368.69 366.585Z" fill="#FFB8B8"/>
<path d="M371.792 370.71L356.284 368.648L341.78 371.404C340.891 371.572 339.974 371.56 339.091 371.366C338.208 371.173 337.381 370.803 336.666 370.283C335.952 369.762 335.368 369.104 334.953 368.353C334.539 367.601 334.305 366.776 334.267 365.932C334.225 364.988 334.43 364.05 334.863 363.196C335.297 362.342 335.946 361.6 336.757 361.031L359.486 345.09C361.435 343.722 363.844 343.047 366.281 343.184C368.717 343.321 371.021 344.262 372.779 345.838L378.439 350.912C374.389 353.251 371.377 356.76 369.577 361.636C373.469 363.628 374.208 366.653 371.792 370.71Z" fill="#2F2E41"/>
<path d="M386.604 227.805C394.525 227.805 400.946 221.828 400.946 214.454C400.946 207.081 394.525 201.103 386.604 201.103C378.683 201.103 372.262 207.081 372.262 214.454C372.262 221.828 378.683 227.805 386.604 227.805Z" fill="#FFB8B8"/>
<path d="M409.012 240.782L376.888 253.362C379.499 241.16 380.8 230.043 376.888 223.252L397.492 220.983C396.468 226.202 401.681 233.192 409.012 240.782Z" fill="#FFB8B8"/>
<path d="M354.512 366.173L342.549 365.348C335.22 336.898 331.468 310.007 333.105 285.466C333.337 281.883 335.05 278.523 337.886 276.091C340.721 273.659 344.458 272.343 348.313 272.421C352.017 272.499 355.556 273.86 358.24 276.238L373.711 289.942C380.61 296.007 385.966 303.43 389.386 311.669C393.767 322.351 392.195 328.34 381.735 327.323C375.199 326.645 369.188 323.669 364.928 319.005L353.626 306.777L354.512 366.173Z" fill="#FFB8B8"/>
<path d="M345.248 399.98C343.68 399.884 342.156 399.455 340.796 398.723C339.435 397.991 338.273 396.978 337.401 395.762C336.528 394.545 335.969 393.158 335.765 391.707C335.561 390.257 335.719 388.782 336.226 387.397L338.561 381.022L340.333 364.935C343.064 359.749 346.93 360.525 351.41 364.523C354.259 364.262 354.87 361.611 354.512 357.923L363.494 369.179C364.263 370.143 364.74 371.28 364.876 372.474C365.012 373.667 364.802 374.872 364.267 375.965L355.227 394.424C354.365 396.183 352.95 397.657 351.167 398.649C349.385 399.641 347.32 400.106 345.248 399.98Z" fill="#2F2E41"/>
<path d="M458.414 325.545C442.021 334.207 436.882 334.458 420.531 340.6L406.352 333.175C389.7 338.907 378.02 331.05 365.367 319.358C373.647 306.52 369.985 289.837 375.115 290.072L436.482 308.015L439.141 314.202L458.414 325.545Z" fill="#2F2E41"/>
<path d="M438.698 312.14C417.03 320.871 393.699 311.627 373.786 291.31L360.601 241.739C360.445 241.192 360.411 240.622 360.501 240.064C360.591 239.505 360.803 238.969 361.123 238.489C361.444 238.01 361.867 237.596 362.366 237.275C362.865 236.953 363.43 236.73 364.025 236.619L379.325 233.77L386.857 244.907L401.923 232.533L417.921 237.402C420.048 238.05 421.946 239.223 423.413 240.796C424.88 242.37 425.859 244.285 426.248 246.337L438.698 312.14Z" fill="#0F4675"/>
<path opacity="0.2" d="M404.281 354.164C403.112 353.749 402.066 353.08 401.233 352.211C400.398 351.342 399.801 350.3 399.489 349.172C399.177 348.044 399.161 346.863 399.441 345.727C399.721 344.592 400.289 343.536 401.098 342.647L411.227 331.526L418.317 335.238L414.666 349.093C414.402 350.095 413.912 351.034 413.228 351.847C412.545 352.66 411.684 353.328 410.702 353.807C409.72 354.287 408.64 354.567 407.533 354.629C406.426 354.69 405.317 354.531 404.281 354.164Z" fill="black"/>
<path d="M404.281 352.514C403.112 352.1 402.066 351.43 401.233 350.561C400.398 349.692 399.801 348.65 399.489 347.522C399.177 346.394 399.161 345.213 399.441 344.077C399.721 342.942 400.289 341.886 401.098 340.997L411.227 329.875L418.316 333.588L414.666 347.442C414.402 348.445 413.912 349.384 413.228 350.197C412.545 351.01 411.684 351.678 410.701 352.158C409.72 352.637 408.64 352.917 407.533 352.978C406.426 353.04 405.317 352.881 404.281 352.514Z" fill="#FFB8B8"/>
<path d="M420.088 336.888L409.454 330.288L424.962 291.929L419.202 237.895L424.456 240.952C427.277 242.593 429.709 244.75 431.606 247.292C433.504 249.834 434.827 252.709 435.495 255.741L444.015 294.403C440.287 312.224 434.073 327.903 420.088 336.888Z" fill="#0F4675"/>
<path opacity="0.2" d="M413.664 275.636L418.981 300.384L414.608 314.858L413.664 275.636Z" fill="black"/>
<path d="M372.577 213.309C372.577 213.309 364.313 188.13 389.571 193.411C393.489 194.23 396.874 196.35 399.567 199.123C399.808 199.365 400.103 199.556 400.432 199.681C400.761 199.806 401.115 199.862 401.47 199.846C405.505 199.846 407.997 213.269 399.927 219.172C399.927 219.172 401.574 211.229 398.581 208.522C398.042 208.065 397.592 207.525 397.248 206.926C395.3 203.268 388.752 202.067 384.235 202.378C381.93 202.537 381.728 206.28 379.176 205.757C373.368 204.568 371.514 210.83 372.577 213.309Z" fill="#2F2E41"/>
<path d="M398.002 250.68L397.835 251.821L396.803 258.855L395.112 270.375L394.689 273.259C394.657 273.48 394.54 273.681 394.36 273.828C394.18 273.973 393.949 274.054 393.711 274.054H382.439C382.201 274.054 381.97 273.974 381.791 273.828C381.611 273.682 381.494 273.482 381.461 273.261L381.03 270.375L379.311 258.855L378.261 251.815L378.092 250.683C378.073 250.552 378.084 250.42 378.124 250.294C378.164 250.168 378.233 250.052 378.326 249.953C378.418 249.854 378.532 249.774 378.661 249.72C378.789 249.665 378.928 249.637 379.07 249.637H397.024C397.164 249.637 397.304 249.665 397.432 249.72C397.56 249.774 397.675 249.853 397.767 249.952C397.86 250.051 397.929 250.167 397.969 250.293C398.01 250.418 398.021 250.551 398.002 250.68Z" fill="#E6E6E6"/>
<path d="M380.258 246.585H395.892C396.021 246.585 396.15 246.609 396.269 246.655C396.389 246.701 396.498 246.769 396.59 246.854C396.682 246.94 396.754 247.041 396.804 247.153C396.853 247.264 396.879 247.384 396.879 247.504V248.718C396.879 248.962 396.775 249.196 396.59 249.368C396.405 249.541 396.153 249.637 395.892 249.637H380.258C379.997 249.637 379.746 249.541 379.561 249.368C379.375 249.196 379.271 248.962 379.271 248.718V247.504C379.271 247.384 379.297 247.264 379.347 247.153C379.396 247.041 379.469 246.94 379.561 246.854C379.652 246.769 379.761 246.701 379.881 246.655C380.001 246.609 380.129 246.585 380.258 246.585Z" fill="#3F3D56"/>
<path d="M399.413 251.164C391.877 251.929 384.273 251.929 376.737 251.164C376.607 251.164 376.479 251.14 376.359 251.094C376.239 251.048 376.13 250.98 376.039 250.894C375.947 250.809 375.875 250.708 375.825 250.596C375.775 250.485 375.75 250.365 375.75 250.244V249.031C375.75 248.91 375.776 248.79 375.825 248.679C375.875 248.567 375.947 248.466 376.039 248.381C376.13 248.295 376.239 248.227 376.359 248.181C376.479 248.135 376.607 248.111 376.737 248.111C384.267 248.974 391.883 248.974 399.413 248.111C399.675 248.111 399.926 248.208 400.111 248.381C400.296 248.553 400.4 248.787 400.4 249.031V250.244C400.4 250.488 400.296 250.722 400.111 250.894C399.926 251.067 399.675 251.164 399.413 251.164Z" fill="#3F3D56"/>
<path d="M387.617 265.267C389.971 265.267 391.878 263.491 391.878 261.3C391.878 259.11 389.971 257.333 387.617 257.333C385.264 257.333 383.356 259.11 383.356 261.3C383.356 263.491 385.264 265.267 387.617 265.267Z" fill="white"/>
<path d="M398.573 269.645C398.702 270.804 398.531 271.974 398.073 273.058C397.617 274.143 396.887 275.11 395.946 275.877C395.005 276.645 393.879 277.191 392.664 277.47C391.449 277.749 390.18 277.753 388.963 277.481L373.733 274.077L374.098 266.513L389.028 263.301C390.109 263.069 391.23 263.053 392.317 263.255C393.405 263.456 394.434 263.87 395.336 264.47C396.239 265.07 396.994 265.841 397.552 266.734C398.11 267.626 398.458 268.618 398.573 269.645Z" fill="#FFB8B8"/>
<path d="M377.995 275.43L336.894 276.386C335.41 276.421 333.936 276.154 332.574 275.604C331.213 275.054 329.997 274.234 329.011 273.202C328.024 272.17 327.291 270.949 326.864 269.626C326.435 268.304 326.322 266.909 326.532 265.542C326.861 263.399 327.966 261.425 329.664 259.946L349.016 243.093C352.605 239.968 357.077 237.86 361.908 237.017L368.69 235.833L372.678 263.881L349.638 261.406L376.665 264.293L377.995 275.43Z" fill="#0F4675"/>
<path d="M323.847 357.732H218.918C217.985 357.732 217.09 357.388 216.43 356.774C215.77 356.159 215.399 355.326 215.399 354.458C253.436 350.342 290.758 350.342 327.366 354.458C327.366 355.326 326.995 356.159 326.335 356.774C325.675 357.388 324.781 357.732 323.847 357.732Z" fill="#2F2E41"/>
<path d="M327.366 354.65L215.399 354.458L228.376 334.132L228.438 334.035V289.24C228.438 288.696 228.553 288.157 228.777 287.655C229 287.153 229.327 286.696 229.741 286.312C230.153 285.927 230.644 285.622 231.184 285.414C231.723 285.206 232.302 285.099 232.886 285.099H309.258C309.843 285.099 310.421 285.206 310.961 285.414C311.5 285.622 311.991 285.927 312.404 286.312C312.817 286.696 313.144 287.153 313.368 287.655C313.591 288.157 313.706 288.696 313.706 289.24V334.344L327.366 354.65Z" fill="#3F3D56"/>
<path d="M232.785 287.989C232.401 287.99 232.033 288.132 231.761 288.385C231.489 288.637 231.336 288.98 231.336 289.338V330.182C231.336 330.54 231.489 330.882 231.761 331.135C232.033 331.388 232.401 331.531 232.785 331.531H309.982C310.366 331.531 310.734 331.388 311.005 331.135C311.277 330.882 311.43 330.54 311.431 330.182V289.338C311.43 288.98 311.277 288.637 311.005 288.385C310.734 288.132 310.366 287.99 309.982 287.989H232.785Z" fill="white"/>
<path d="M233.292 336.926C233.173 336.926 233.057 336.958 232.957 337.018C232.858 337.077 232.778 337.162 232.728 337.262L228.73 345.354C228.686 345.442 228.667 345.539 228.674 345.636C228.681 345.733 228.715 345.826 228.771 345.908C228.827 345.989 228.905 346.056 228.996 346.103C229.087 346.149 229.189 346.174 229.294 346.174H313.379C313.485 346.174 313.589 346.149 313.681 346.1C313.774 346.052 313.852 345.983 313.907 345.9C313.963 345.816 313.995 345.72 313.999 345.621C314.004 345.523 313.982 345.425 313.934 345.337L309.588 337.246C309.537 337.149 309.458 337.068 309.36 337.012C309.262 336.956 309.148 336.926 309.033 336.926H233.292Z" fill="#2F2E41"/>
<path d="M271.073 287.315C271.588 287.315 272.005 286.927 272.005 286.448C272.005 285.969 271.588 285.581 271.073 285.581C270.559 285.581 270.142 285.969 270.142 286.448C270.142 286.927 270.559 287.315 271.073 287.315Z" fill="white"/>
<path d="M262.807 347.715C262.671 347.715 262.538 347.757 262.43 347.834C262.321 347.912 262.244 348.02 262.208 348.142L261.205 351.61C261.18 351.696 261.177 351.786 261.196 351.873C261.214 351.96 261.254 352.042 261.312 352.112C261.37 352.183 261.444 352.24 261.529 352.279C261.615 352.319 261.709 352.339 261.804 352.339H280.879C280.978 352.339 281.076 352.317 281.163 352.274C281.251 352.232 281.327 352.171 281.384 352.096C281.442 352.021 281.479 351.934 281.493 351.843C281.507 351.752 281.498 351.659 281.465 351.572L280.176 348.104C280.133 347.99 280.054 347.892 279.949 347.822C279.844 347.753 279.718 347.715 279.589 347.715H262.807Z" fill="#2F2E41"/>
<path d="M313.707 333.361V334.132H228.377L228.441 334.036V333.361H313.707Z" fill="#2F2E41"/>
<path d="M192.222 307.658C192.457 315.811 193.924 323.892 196.58 331.664C196.641 331.844 196.704 332.021 196.768 332.202H213.03C213.013 332.04 212.995 331.86 212.978 331.664C211.894 320.059 205.642 249.432 213.117 237.354C212.463 238.334 190.962 270.786 192.222 307.658Z" fill="#E6E6E6"/>
<path d="M193.443 331.664C193.579 331.844 193.721 332.024 193.865 332.202H206.065C205.973 332.049 205.866 331.868 205.741 331.664C203.725 328.277 197.76 318.154 192.223 307.658C186.272 296.38 180.813 284.673 181.272 280.437C181.131 281.392 177.013 310.522 193.443 331.664Z" fill="#E6E6E6"/>
<path d="M220.958 86.8469L227.57 81.9239C222.434 81.3964 220.323 84.0044 219.459 86.0685C215.447 84.5171 211.078 86.5499 211.078 86.5499L224.307 91.0207C223.639 89.3612 222.478 87.9134 220.958 86.8469Z" fill="#3F3D56"/>
<path d="M420.095 61.508L426.707 56.5851C421.571 56.0575 419.46 58.6655 418.597 60.7296C414.584 59.1782 410.216 61.211 410.216 61.211L423.444 65.6818C422.777 64.0223 421.615 62.5745 420.095 61.508Z" fill="#3F3D56"/>
<path d="M382.023 126.835L388.635 121.912C383.498 121.384 381.388 123.992 380.524 126.056C376.512 124.505 372.144 126.538 372.144 126.538L385.372 131.008C384.705 129.349 383.543 127.901 382.023 126.835Z" fill="#3F3D56"/>
<path d="M122.487 223.623C154.933 218.177 171.56 163.802 159.624 102.172C147.687 40.542 111.708 -5.00418 79.2611 0.441671C46.8145 5.8875 30.1877 60.2631 42.1242 121.893C54.0609 183.523 90.0403 229.069 122.487 223.623Z" fill="#E6E6E6"/>
<path d="M91.0964 90.8085C96.3474 104.1 101.02 117.573 105.114 131.227C109.201 144.868 112.697 158.646 115.601 172.562C118.506 186.474 120.808 200.479 122.51 214.577C124.202 228.651 125.29 242.772 125.772 256.942C126.252 271.096 126.119 285.252 125.375 299.412C125.284 301.147 125.182 302.881 125.072 304.615C124.96 306.391 127.928 306.385 128.04 304.615C128.937 290.411 129.218 276.189 128.884 261.949C128.548 247.791 127.604 233.661 126.051 219.559C124.494 205.415 122.338 191.343 119.582 177.342C116.824 163.347 113.466 149.47 109.508 135.712C105.553 121.968 101.006 108.389 95.8654 94.9729C95.2385 93.3372 94.6026 91.7045 93.9581 90.0742C93.3041 88.4197 90.4349 89.1346 91.0964 90.8085Z" fill="#3F3D56"/>
<path d="M111.545 143.095L124.692 115.92L128.398 108.26C128.585 107.942 128.634 107.568 128.535 107.217C128.436 106.866 128.197 106.563 127.866 106.37C127.525 106.188 127.122 106.138 126.742 106.231C126.362 106.324 126.037 106.552 125.836 106.866L112.688 134.041L108.983 141.701C108.796 142.02 108.747 142.393 108.846 142.744C108.945 143.096 109.184 143.399 109.515 143.591C109.856 143.773 110.26 143.823 110.639 143.73C111.019 143.638 111.345 143.409 111.545 143.095Z" fill="#3F3D56"/>
<path d="M114.449 161.663L84.471 151.2L76.021 148.251C75.6418 148.156 75.238 148.205 74.8961 148.385C74.5547 148.566 74.3033 148.864 74.1957 149.215C74.0998 149.569 74.1542 149.942 74.347 150.259C74.5403 150.576 74.8572 150.811 75.2322 150.915L105.211 161.378L113.661 164.327C114.04 164.421 114.444 164.373 114.785 164.193C115.127 164.012 115.378 163.714 115.486 163.362C115.582 163.01 115.527 162.635 115.335 162.319C115.141 162.002 114.824 161.767 114.449 161.663Z" fill="#3F3D56"/>
<path d="M91.1055 309.886C91.1055 309.886 127.211 298.836 160.843 309.886H91.1055Z" fill="#E6E6E6"/>
<path d="M252.662 304.651C259.816 304.581 266.97 304.462 274.124 304.372C276.509 304.341 278.894 304.315 281.279 304.292C283.335 304.273 283.34 301.298 281.279 301.317C274.125 301.387 266.971 301.506 259.817 301.596C257.432 301.626 255.047 301.653 252.662 301.676C250.606 301.696 250.601 304.671 252.662 304.651Z" fill="#0F4675"/>
<path d="M252.662 311.592L281.578 311.313L289.801 311.234C291.857 311.214 291.862 308.239 289.801 308.259L260.885 308.538L252.662 308.617C250.606 308.637 250.601 311.612 252.662 311.592Z" fill="#0F4675"/>
<path d="M252.662 318.534L281.578 318.255L289.801 318.175C291.857 318.155 291.862 315.18 289.801 315.2L260.885 315.479L252.662 315.559C250.606 315.579 250.601 318.553 252.662 318.534Z" fill="#0F4675"/>
</g>
</svg>
